<svg width="202" height="66" viewBox="0 0 202 66" fill="none" xmlns="http://www.w3.org/2000/svg">
<g clip-path="url(#clip0_3321_524)">
<mask id="mask0_3321_524" style="mask-type:luminance" maskUnits="userSpaceOnUse" x="0" y="0" width="202" height="66">
<path d="M201.3 0H0V66H201.3V0Z" fill="white"/>
</mask>
<g mask="url(#mask0_3321_524)">
<path d="M69.1099 31.9977C69.0564 30.5323 69.3013 29.0712 69.83 27.7022C70.3586 26.3332 71.1602 25.0847 72.1863 24.0315C73.2125 22.9783 74.442 22.1421 75.8013 21.5733C77.1608 21.0044 78.6217 20.7146 80.0964 20.7212C85.6533 20.7212 88.9422 23.9632 89.9346 27.7691L86.4473 28.9389C86.1404 27.5201 85.3292 26.2586 84.1629 25.3861C82.9963 24.5136 81.5526 24.0886 80.0964 24.1887C76.4956 24.1887 72.895 26.7964 72.895 32.0681C72.895 37.3399 76.4107 39.8489 80.1388 39.8489C81.603 39.8911 83.0392 39.4431 84.2166 38.5765C85.3941 37.71 86.2445 36.4753 86.6316 35.0705L90.0195 36.17C89.4396 38.3147 88.1389 40.1973 86.3336 41.5051C84.5283 42.8129 82.3272 43.467 80.0964 43.3586C78.6083 43.3863 77.1306 43.1081 75.7558 42.5412C74.381 41.9742 73.1389 41.1311 72.1075 40.0644C71.0759 38.9976 70.2771 37.7304 69.7613 36.3423C69.2455 34.9541 69.0238 33.4751 69.1099 31.9977Z" fill="#E0E0E0"/>
<path d="M96.7383 42.8372H93.166V20.6648H96.7383V29.3618C97.2587 28.75 97.9116 28.2635 98.6481 27.9388C99.3849 27.6141 100.186 27.4597 100.991 27.487C104.691 27.487 106.477 30.1229 106.477 33.4072V42.8372H103.004V34.0133C103.069 33.5841 103.036 33.1457 102.908 32.7309C102.779 32.3161 102.558 31.9354 102.261 31.6172C101.964 31.299 101.599 31.0514 101.193 30.8926C100.786 30.7341 100.349 30.6684 99.9137 30.7009C99.4817 30.7012 99.0545 30.7908 98.659 30.9639C98.2637 31.1372 97.9088 31.3901 97.6169 31.7069C97.325 32.0236 97.1026 32.3971 96.9635 32.804C96.8244 33.2107 96.7719 33.6417 96.8092 34.0697L96.7383 42.8372Z" fill="#E0E0E0"/>
<path d="M114.458 34.2953L118.3 33.7033C119.165 33.5904 119.406 33.1535 119.406 32.6319C119.406 31.3774 118.555 30.3625 116.57 30.3625C116.188 30.3299 115.802 30.3749 115.438 30.4947C115.073 30.6147 114.736 30.8069 114.449 31.06C114.161 31.3131 113.928 31.6216 113.764 31.967C113.6 32.3123 113.508 32.6872 113.494 33.0689L110.234 32.3359C110.503 29.7565 112.856 27.4589 116.542 27.4589C121.164 27.4589 122.921 30.0665 122.921 33.0971V40.4973C122.913 41.2999 122.975 42.1016 123.106 42.8935H119.774C119.66 42.266 119.612 41.6281 119.632 40.9907C119.135 41.749 118.447 42.3651 117.636 42.778C116.826 43.1908 115.921 43.3861 115.011 43.3446C114.377 43.3964 113.738 43.3198 113.135 43.1195C112.531 42.9192 111.975 42.5991 111.499 42.1788C111.023 41.7584 110.638 41.2466 110.367 40.6742C110.096 40.1017 109.945 39.4804 109.922 38.8482C109.922 36.1276 111.892 34.6618 114.458 34.2953ZM119.406 36.6914V36.0149L115.493 36.5928C114.961 36.6109 114.457 36.8319 114.085 37.2097C113.713 37.5877 113.501 38.0936 113.494 38.6226C113.499 38.8957 113.56 39.1648 113.675 39.4129C113.789 39.6613 113.954 39.883 114.159 40.0645C114.365 40.246 114.606 40.3833 114.867 40.4675C115.128 40.5516 115.404 40.581 115.677 40.5536C116.194 40.6061 116.715 40.5407 117.202 40.3627C117.689 40.1848 118.129 39.8987 118.489 39.5265C118.848 39.1542 119.117 38.7054 119.276 38.2142C119.435 37.723 119.479 37.2023 119.406 36.6914Z" fill="#E0E0E0"/>
<path d="M128.989 20.3547C129.299 20.3509 129.606 20.4084 129.893 20.5237C130.18 20.6389 130.441 20.8095 130.662 21.026C130.882 21.2423 131.057 21.4998 131.176 21.784C131.295 22.0679 131.357 22.3727 131.357 22.6806C131.357 23.2935 131.112 23.8816 130.676 24.3151C130.24 24.7487 129.648 24.9922 129.032 24.9922C128.415 24.9922 127.824 24.7487 127.388 24.3151C126.952 23.8816 126.707 23.2935 126.707 22.6806C126.707 22.0734 126.945 21.4901 127.372 21.0555C127.798 20.621 128.379 20.3694 128.989 20.3547ZM127.246 42.9076V27.9241H130.776V42.8371L127.246 42.9076Z" fill="#E0E0E0"/>
<path d="M138.969 42.8372H135.396V27.9241H138.884V29.9116C139.336 29.1486 139.987 28.5208 140.768 28.0943C141.549 27.6676 142.431 27.4579 143.321 27.4871C146.978 27.4871 148.736 30.1229 148.736 33.4073V42.8372H145.164V34.0133C145.164 32.181 144.327 30.7009 142.088 30.7009C141.642 30.7036 141.202 30.8001 140.796 30.9839C140.39 31.1677 140.028 31.4348 139.734 31.7675C139.439 32.1003 139.219 32.4913 139.087 32.9149C138.955 33.3383 138.915 33.7848 138.969 34.2248V42.8372Z" fill="#E0E0E0"/>
<path d="M153.088 42.8372V20.6648H156.66V42.8372H153.088Z" fill="#E0E0E0"/>
<path d="M163.039 20.3547C163.66 20.3547 164.255 20.5998 164.693 21.036C165.132 21.4721 165.378 22.0636 165.378 22.6806C165.375 23.1365 165.236 23.5815 164.981 23.9595C164.724 24.3375 164.361 24.6315 163.937 24.8048C163.512 24.978 163.046 25.0226 162.596 24.933C162.147 24.8432 161.734 24.6235 161.409 24.3009C161.085 23.9785 160.864 23.5679 160.774 23.1208C160.684 22.6736 160.729 22.2102 160.903 21.7883C161.077 21.3665 161.373 21.0053 161.753 20.7502C162.133 20.4952 162.581 20.3575 163.039 20.3547ZM161.281 42.9076V27.9241H164.825V42.8371L161.281 42.9076Z" fill="#E0E0E0"/>
<path d="M173.02 42.8372H169.447V27.9242H172.921V29.9116C173.374 29.1506 174.026 28.5246 174.806 28.0982C175.587 27.6719 176.468 27.461 177.357 27.4871C181.029 27.4871 182.786 30.123 182.786 33.4073V42.8372H179.214V34.0133C179.28 33.5842 179.247 33.1458 179.118 32.7309C178.989 32.3161 178.768 31.9355 178.471 31.6172C178.174 31.2991 177.809 31.0514 177.402 30.8927C176.996 30.7341 176.559 30.6684 176.123 30.7009C175.679 30.7034 175.239 30.7998 174.835 30.9838C174.429 31.1677 174.067 31.435 173.774 31.7682C173.48 32.1011 173.262 32.4924 173.132 32.9159C173.001 33.3395 172.963 33.7855 173.02 34.2249V42.8372Z" fill="#E0E0E0"/>
<path d="M195.005 34.2248L201.3 42.8372H196.919L192.51 36.6914L190.667 38.6226V42.8512H187.123V20.6648H190.667V33.9569L196.424 27.9241H201.173L195.005 34.2248Z" fill="#E0E0E0"/>
<path d="M26.7785 14.6743L42.2304 23.498V41.216L26.8211 50.0963L11.3692 41.2867V23.5685L26.7785 14.6743ZM26.7785 1.65002L21.1081 4.92018L5.67042 13.8145L0 17.0846V23.5967V41.3007V47.8127L5.67042 51.0548L21.1223 59.8785L26.7927 63.1204L32.4633 59.8503L47.8726 50.9562L53.543 47.7V41.188V23.4698V16.9577L47.8726 13.7158L32.4207 4.89199L26.7503 1.65002H26.7785Z" fill="#E0E0E0"/>
</g>
</g>
<defs>
<clipPath id="clip0_3321_524">
<rect width="201.3" height="66" fill="white"/>
</clipPath>
</defs>
</svg>
