<svg width="184" height="47" viewBox="0 0 184 47" fill="none" xmlns="http://www.w3.org/2000/svg">
<path d="M60.0039 38.8135V15.7445H63.4362L63.7631 17.6065H63.9266C64.9072 16.3311 66.5737 15.4176 68.8941 15.4176C73.1407 15.4176 76.5409 18.882 76.5409 24.0102C76.5409 29.1382 73.1437 32.6025 68.8941 32.6025C66.6059 32.6025 65.0064 31.6539 64.1571 30.577H63.9936V38.8105H60.0069L60.0039 38.8135ZM72.5512 24.013C72.5512 21.0068 70.622 19.1126 68.2694 19.1126C65.917 19.1126 63.9878 21.0068 63.9878 24.013C63.9878 27.0193 65.917 28.9135 68.2694 28.9135C70.622 28.9135 72.5512 27.0193 72.5512 24.013Z" fill="#E0E0E0"/>
<path d="M78.5664 24.0133C78.5664 19.0136 82.1593 15.4208 86.9634 15.4208C91.7674 15.4208 95.3603 19.0136 95.3603 24.0133C95.3603 29.013 91.7674 32.6058 86.9634 32.6058C82.1593 32.6058 78.5664 28.978 78.5664 24.0133ZM91.3414 24.0133C91.3414 21.0713 89.38 19.113 86.9634 19.113C84.5467 19.113 82.5533 21.0743 82.5533 24.0133C82.5533 26.9524 84.5467 28.8816 86.9634 28.8816C89.38 28.8816 91.3414 26.9552 91.3414 24.0133Z" fill="#E0E0E0"/>
<path d="M98.2461 32.2786V9.40814H102.233V32.2814H98.2461V32.2786Z" fill="#E0E0E0"/>
<path d="M117.036 15.7443H121.282L114.094 35.8391C113.376 37.8325 112.395 38.8131 109.812 38.8131H105.956V35.1211H109.225C109.815 35.1211 110.139 34.8264 110.337 34.336L110.728 33.259L103.998 15.7443H108.245L112.526 27.2146H113.18L117.036 15.7443Z" fill="#E0E0E0"/>
<path d="M122.045 33.0957H126.096C126.26 34.1728 127.337 35.6438 129.888 35.6438C132.272 35.6438 133.842 34.1407 133.842 31.8524V29.5322H133.679C132.797 30.4806 131.163 31.3301 129.07 31.3301C124.824 31.3301 121.555 28.0611 121.555 23.3563C121.555 18.6515 124.824 15.4176 129.07 15.4176C131.259 15.4176 132.862 16.299 133.874 17.5423H134.038L134.365 15.7445H137.829V31.8524C137.829 36.2304 134.887 39.1403 129.888 39.1403C124.301 39.1403 122.144 35.4803 122.045 33.0957ZM133.842 23.3592C133.842 20.7791 132.012 18.9813 129.692 18.9813C127.372 18.9813 125.574 20.7791 125.574 23.3592C125.574 25.9393 127.404 27.7694 129.692 27.7694C131.98 27.7694 133.842 25.9713 133.842 23.3592Z" fill="#E0E0E0"/>
<path d="M140.598 24.0133C140.598 19.0136 144.191 15.4208 148.995 15.4208C153.799 15.4208 157.392 19.0136 157.392 24.0133C157.392 29.013 153.799 32.6058 148.995 32.6058C144.191 32.6058 140.598 28.978 140.598 24.0133ZM153.373 24.0133C153.373 21.0713 151.411 19.113 148.995 19.113C146.578 19.113 144.585 21.0743 144.585 24.0133C144.585 26.9524 146.578 28.8816 148.995 28.8816C151.411 28.8816 153.373 26.9552 153.373 24.0133Z" fill="#E0E0E0"/>
<path d="M160.167 32.2786V15.7445H163.596L163.923 17.3118H164.087C164.74 16.5617 166.375 15.4176 168.857 15.4176C172.647 15.4176 175.391 18.1611 175.391 22.3435V32.2757H171.404V22.866C171.404 20.7412 169.901 19.206 167.843 19.206C165.786 19.206 164.151 20.8083 164.151 22.866V32.2757H160.164L160.167 32.2786Z" fill="#E0E0E0"/>
<path d="M36.7989 30.3495L46.5996 24.6903C47.1192 24.3897 47.4403 23.8321 47.4403 23.2338V11.9154C47.4403 11.3171 47.1192 10.7596 46.5996 10.459L36.7989 4.79974C36.2794 4.49913 35.6344 4.50205 35.1178 4.79974L25.3169 10.459C24.7975 10.7596 24.4764 11.3171 24.4764 11.9154V32.1415L17.603 36.1079L10.7296 32.1415V24.2058L17.603 20.2394L22.1357 22.8573V17.5337L18.4435 15.4002C18.1896 15.2543 17.8979 15.1755 17.603 15.1755C17.3082 15.1755 17.0164 15.2543 16.7625 15.4002L6.96167 21.0595C6.44215 21.3601 6.12109 21.9176 6.12109 22.5159V33.8344C6.12109 34.4327 6.44215 34.9901 6.96167 35.2907L16.7625 40.95C17.2819 41.2477 17.9241 41.2477 18.4435 40.95L28.2444 35.2907C28.7639 34.9901 29.0849 34.4327 29.0849 33.8344V13.6053L29.2075 13.5352L35.9555 9.63885L42.8289 13.6053V21.5411L35.9555 25.5075L31.4285 22.8952V28.219L35.1148 30.3466C35.6344 30.6443 36.2794 30.6443 36.796 30.3466L36.7989 30.3495Z" fill="#E0E0E0"/>
</svg>
